<svg xmlns="http://www.w3.org/2000/svg" width="60" height="128" viewBox="0 0 215 128" version="1.1"><path d="M 0 64.004 L 0 128.009 107.750 127.754 L 215.500 127.500 215.757 63.750 L 216.015 0 108.007 0 L 0 0 0 64.004 M -0 64.259 L -0 127.500 108 127.241 L 216 126.982 216 63.741 L 216 0.500 108 0.759 L 0 1.018 -0 64.259 M 0.471 64.500 C 0.471 99.700, 0.597 113.955, 0.750 96.178 C 0.903 78.400, 0.903 49.600, 0.749 32.178 C 0.596 14.755, 0.471 29.300, 0.471 64.500 M 91.452 18.646 C 89.149 21.132, 89 21.980, 89 32.646 C 89 45.414, 88.914 45.304, 97.008 42.879 C 100.712 41.770, 100.755 41.696, 101.401 35.392 C 102.287 26.746, 102.575 26.248, 107.141 25.476 C 110.174 24.964, 111.572 25.208, 112.999 26.500 C 114.030 27.433, 115.321 27.919, 115.868 27.582 C 117.640 26.486, 118.189 28.951, 118.096 37.588 C 118.029 43.777, 117.538 46.797, 116.278 48.782 C 114.089 52.228, 111.052 55, 109.466 55 C 107.969 55, 102 60.958, 102 62.452 C 102 63.043, 100.768 64.420, 99.263 65.513 C 97.758 66.606, 94.725 69.151, 92.524 71.169 L 88.521 74.837 88.270 90.078 C 88.109 99.893, 88.404 105.782, 89.101 106.621 C 89.939 107.631, 94.371 107.841, 108.841 107.554 C 120.721 107.319, 127.954 107.559, 128.750 108.215 C 129.727 109.020, 130 107.853, 129.998 102.872 L 129.996 96.500 122.248 96.212 C 105.575 95.592, 103.458 95.429, 102.250 94.669 C 100.318 93.453, 100.664 83.448, 102.750 80.231 C 104.737 77.167, 107.709 74, 108.597 74 C 108.925 74, 111.238 72.200, 113.737 70 C 116.237 67.800, 118.844 66, 119.532 66 C 120.220 66, 121.065 64.879, 121.408 63.509 C 121.752 62.139, 123.547 59.641, 125.397 57.957 C 129.471 54.250, 129.940 51.870, 130.064 34.246 C 130.140 23.534, 129.850 20.701, 128.463 18.584 L 126.770 16 110.337 16 L 93.905 16 91.452 18.646 M 37.921 19.315 C 36.838 20.478, 36.158 21.970, 36.412 22.631 C 36.891 23.879, 31.352 27, 28.658 27 C 26.822 27, 25.598 28.634, 26.853 29.409 C 27.354 29.719, 27.380 31.812, 26.913 34.228 C 25.280 42.675, 25.428 43.015, 30.632 42.742 L 35.265 42.500 34.971 51 C 34.810 55.675, 34.638 67.825, 34.589 78 L 34.500 96.500 26.696 96.793 C 19.151 97.076, 18.916 97.159, 19.613 99.293 C 20.245 101.227, 20.623 103.280, 20.917 106.378 C 20.962 106.861, 22.912 106.931, 25.250 106.533 C 32.302 105.335, 39 105.156, 39 106.166 C 39 108.145, 41.005 105.782, 41.100 103.691 C 41.194 101.626, 41.238 101.639, 41.877 103.926 C 42.250 105.260, 43.177 106.559, 43.937 106.812 C 44.878 107.126, 45.118 106.751, 44.691 105.636 C 44.345 104.736, 44.461 104, 44.948 104 C 45.435 104, 45.990 104.469, 46.181 105.043 C 46.760 106.780, 53 107.154, 53 105.452 C 53 103.796, 57.526 103.424, 58.500 105 C 58.840 105.550, 59.792 106, 60.617 106 C 61.761 106, 62.042 104.996, 61.807 101.750 L 61.500 97.500 54.500 97 L 47.500 96.500 47.175 92.513 C 46.997 90.320, 46.416 88.001, 45.884 87.360 C 45.260 86.609, 45.262 86.071, 45.888 85.847 C 46.423 85.656, 46.988 81.986, 47.144 77.691 C 47.362 71.693, 47.088 69.668, 45.964 68.956 C 44.967 68.326, 44.899 68.026, 45.750 68.015 C 47.458 67.994, 47.540 47.347, 45.834 46.778 C 44.947 46.482, 44.947 45.592, 45.834 43.046 C 46.475 41.206, 47 34.639, 47 28.451 L 47 17.200 43.446 17.200 C 41.115 17.200, 39.213 17.928, 37.921 19.315 M 165.882 18.100 C 165.122 18.467, 163.273 19.341, 161.772 20.041 L 159.045 21.314 159.475 57.407 C 159.711 77.258, 159.926 95.434, 159.952 97.798 C 159.995 101.613, 160.339 102.239, 163.017 103.365 C 164.676 104.063, 165.784 104.882, 165.480 105.186 C 164.704 105.963, 172.469 105.446, 173.783 104.634 C 174.377 104.267, 175.144 104.425, 175.490 104.984 C 176.279 106.261, 181.280 106.316, 182.550 105.062 C 183.142 104.477, 185.336 104.518, 188.371 105.168 C 192.919 106.144, 193.405 106.049, 195.716 103.738 L 198.192 101.263 198.444 67.782 C 198.582 49.368, 198.990 33.825, 199.351 33.241 C 200.202 31.864, 198.024 21.887, 196.505 20.203 C 195.861 19.490, 194.022 18.753, 192.417 18.567 C 190.813 18.381, 189.500 18.114, 189.500 17.975 C 189.500 17.376, 167.133 17.495, 165.882 18.100 M 179 25.964 C 176.525 26.394, 174.143 26.540, 173.706 26.287 C 173.270 26.035, 172.267 26.364, 171.477 27.019 C 170.295 28, 170.100 31.848, 170.370 48.860 C 170.551 60.217, 170.401 70.356, 170.038 71.391 C 169.675 72.426, 169.767 76.174, 170.242 79.720 C 170.870 84.403, 170.775 86.567, 169.895 87.626 C 168.978 88.731, 168.966 89.366, 169.842 90.242 C 170.479 90.879, 171 92.628, 171 94.128 C 171 96.671, 171.358 96.901, 176.280 97.516 C 185.265 98.638, 187.328 98.026, 188.698 93.831 C 189.853 90.291, 190.888 27.555, 189.809 26.476 C 188.818 25.485, 183.264 25.222, 179 25.964" stroke="none" fill="#d6d3d0" fill-rule="evenodd"/><path d="M 1 64 L 1 127 108 127 L 215 127 215 64 L 215 1 108 1 L 1 1 1 64 M 91.452 18.646 C 89.149 21.132, 89 21.980, 89 32.646 C 89 45.414, 88.914 45.304, 97.008 42.879 C 100.712 41.770, 100.755 41.696, 101.401 35.392 C 102.287 26.746, 102.575 26.248, 107.141 25.476 C 110.174 24.964, 111.572 25.208, 112.999 26.500 C 114.030 27.433, 115.321 27.919, 115.868 27.582 C 117.640 26.486, 118.189 28.951, 118.096 37.588 C 118.029 43.777, 117.538 46.797, 116.278 48.782 C 114.089 52.228, 111.052 55, 109.466 55 C 107.969 55, 102 60.958, 102 62.452 C 102 63.043, 100.768 64.420, 99.263 65.513 C 97.758 66.606, 94.725 69.151, 92.524 71.169 L 88.521 74.837 88.270 90.078 C 88.109 99.893, 88.404 105.782, 89.101 106.621 C 89.939 107.631, 94.371 107.841, 108.841 107.554 C 120.721 107.319, 127.954 107.559, 128.750 108.215 C 129.727 109.020, 130 107.853, 129.998 102.872 L 129.996 96.500 122.248 96.212 C 105.575 95.592, 103.458 95.429, 102.250 94.669 C 100.318 93.453, 100.664 83.448, 102.750 80.231 C 104.737 77.167, 107.709 74, 108.597 74 C 108.925 74, 111.238 72.200, 113.737 70 C 116.237 67.800, 118.844 66, 119.532 66 C 120.220 66, 121.065 64.879, 121.408 63.509 C 121.752 62.139, 123.547 59.641, 125.397 57.957 C 129.471 54.250, 129.940 51.870, 130.064 34.246 C 130.140 23.534, 129.850 20.701, 128.463 18.584 L 126.770 16 110.337 16 L 93.905 16 91.452 18.646 M 37.921 19.315 C 36.838 20.478, 36.158 21.970, 36.412 22.631 C 36.891 23.879, 31.352 27, 28.658 27 C 26.822 27, 25.598 28.634, 26.853 29.409 C 27.354 29.719, 27.380 31.812, 26.913 34.228 C 25.280 42.675, 25.428 43.015, 30.632 42.742 L 35.265 42.500 34.971 51 C 34.810 55.675, 34.638 67.825, 34.589 78 L 34.500 96.500 26.696 96.793 C 19.151 97.076, 18.916 97.159, 19.613 99.293 C 20.245 101.227, 20.623 103.280, 20.917 106.378 C 20.962 106.861, 22.912 106.931, 25.250 106.533 C 32.302 105.335, 39 105.156, 39 106.166 C 39 108.145, 41.005 105.782, 41.100 103.691 C 41.194 101.626, 41.238 101.639, 41.877 103.926 C 42.250 105.260, 43.177 106.559, 43.937 106.812 C 44.878 107.126, 45.118 106.751, 44.691 105.636 C 44.345 104.736, 44.461 104, 44.948 104 C 45.435 104, 45.990 104.469, 46.181 105.043 C 46.760 106.780, 53 107.154, 53 105.452 C 53 103.796, 57.526 103.424, 58.500 105 C 58.840 105.550, 59.792 106, 60.617 106 C 61.761 106, 62.042 104.996, 61.807 101.750 L 61.500 97.500 54.500 97 L 47.500 96.500 47.175 92.513 C 46.997 90.320, 46.416 88.001, 45.884 87.360 C 45.260 86.609, 45.262 86.071, 45.888 85.847 C 46.423 85.656, 46.988 81.986, 47.144 77.691 C 47.362 71.693, 47.088 69.668, 45.964 68.956 C 44.967 68.326, 44.899 68.026, 45.750 68.015 C 47.458 67.994, 47.540 47.347, 45.834 46.778 C 44.947 46.482, 44.947 45.592, 45.834 43.046 C 46.475 41.206, 47 34.639, 47 28.451 L 47 17.200 43.446 17.200 C 41.115 17.200, 39.213 17.928, 37.921 19.315 M 165.882 18.100 C 165.122 18.467, 163.273 19.341, 161.772 20.041 L 159.045 21.314 159.475 57.407 C 159.711 77.258, 159.926 95.434, 159.952 97.798 C 159.995 101.613, 160.339 102.239, 163.017 103.365 C 164.676 104.063, 165.784 104.882, 165.480 105.186 C 164.704 105.963, 172.469 105.446, 173.783 104.634 C 174.377 104.267, 175.144 104.425, 175.490 104.984 C 176.279 106.261, 181.280 106.316, 182.550 105.062 C 183.142 104.477, 185.336 104.518, 188.371 105.168 C 192.919 106.144, 193.405 106.049, 195.716 103.738 L 198.192 101.263 198.444 67.782 C 198.582 49.368, 198.990 33.825, 199.351 33.241 C 200.202 31.864, 198.024 21.887, 196.505 20.203 C 195.861 19.490, 194.022 18.753, 192.417 18.567 C 190.813 18.381, 189.500 18.114, 189.500 17.975 C 189.500 17.376, 167.133 17.495, 165.882 18.100 M 179 25.964 C 176.525 26.394, 174.143 26.540, 173.706 26.287 C 173.270 26.035, 172.267 26.364, 171.477 27.019 C 170.295 28, 170.100 31.848, 170.370 48.860 C 170.551 60.217, 170.401 70.356, 170.038 71.391 C 169.675 72.426, 169.767 76.174, 170.242 79.720 C 170.870 84.403, 170.775 86.567, 169.895 87.626 C 168.978 88.731, 168.966 89.366, 169.842 90.242 C 170.479 90.879, 171 92.628, 171 94.128 C 171 96.671, 171.358 96.901, 176.280 97.516 C 185.265 98.638, 187.328 98.026, 188.698 93.831 C 189.853 90.291, 190.888 27.555, 189.809 26.476 C 188.818 25.485, 183.264 25.222, 179 25.964" stroke="none" fill="#8d140b" fill-rule="evenodd"/></svg>